<svg id="Layer_1" data-name="Layer 1" xmlns="http://www.w3.org/2000/svg" viewBox="0 0 969.84 648"><defs><style>.cls-1{fill:#fefefe;}.cls-2{fill:#8ccb33;}.cls-3{fill:#030303;}</style></defs><path class="cls-1" d="M208.05,798q0-322.79-.05-645.59c0-1.92.43-2.36,2.36-2.36q482.57.08,965.12,0c1.92,0,2.36.43,2.36,2.36q-.08,321.65,0,643.28c0,1.93-.43,2.36-2.36,2.36Q691.76,797.93,208.05,798Zm534.7-284.48c-2.38-2.43-4.83-4.79-7.11-7.3-3.4-3.75-6.72-7.57-10-11.43a3.61,3.61,0,0,0-3.08-1.39c-7.12.06-14.24.1-21.36,0-1.94,0-2.49.54-2.49,2.45,0,10-.15,20.07-.07,30.1,0,2.4-.45,3.22-3,3.16-8.4-.18-16.81-.06-25.22-.07a3.23,3.23,0,0,0-3.09,1.25c-3.85,5.24-7,10.92-10.48,16.38-2.2,3.45-4.48,6.85-6.75,10.31a3.07,3.07,0,0,0,.57.12c20.67,0,41.35,0,62,.05a2.56,2.56,0,0,0,2.56-1.59c1.48-2.78,3-5.52,4.44-8.34a3.11,3.11,0,0,1,3.34-2c2.46.07,4.83.71,7.34.66,4.07-.1,8.15.4,12.23.61,4.39.22,8.77.59,13.16.86q6.12.39,12.23.66c4,.18,8.09.66,12.14.84s8.33.47,12.47.78c4.3.32,8.61.39,12.91.71,4.07.3,8.18.46,12.22.85s8.11.21,12.16.77c4.45.62,9,.33,13.5.67s8.93.69,13.41.92c4,.21,8,.18,12,.71,3.62.49,7.27.53,10.87.73,4.4.25,8.82.6,13.23.75,7.53.27,15,1.31,22.56,1.33q42.21.09,84.41.09h2.64c-1-2.2-2.69-3.49-4.08-5-5.08-5.59-9.26-11.93-14.51-17.42-3.93-4.11-7.19-8.86-10.67-13.39a4.11,4.11,0,0,0-3.68-1.72c-15.79.07-31.57,0-47.35.06-1.35,0-2.46-.13-3.36-1.34-2.42-3.25-5-6.38-7.59-9.51-5.36-6.48-10.09-13.47-15.59-19.85a4.68,4.68,0,0,0-3.93-1.82c-16.9.07-33.8,0-50.7,0a4.77,4.77,0,0,1-3.51-1.07c-4.72-4.09-9-8.63-13.52-12.92-6.76-6.42-13.61-12.77-20.2-19.37a5.61,5.61,0,0,0-4.54-1.79c-17.32.49-34.64.82-52,1.37-2.76.09-5-.37-6.9-2.38-.87-.91-2-1.57-2.93-2.42-8.19-7.49-16.4-15-24.52-22.52a6,6,0,0,0-4.48-1.88c-16.81.08-33.62,0-50.44.08a6.54,6.54,0,0,1-4.26-1.33c-2.35-1.79-4.83-3.42-7.2-5.19q-14.55-10.8-29-21.69a6.59,6.59,0,0,0-4.21-1.46c-12.78.05-25.56,0-38.34.06a7.59,7.59,0,0,1-4.11-1.13l-22.71-13.62c-7-4.2-14-8.34-20.94-12.67a3.81,3.81,0,0,0-3.72-.38c-9.64,3.56-19.29,7.09-28.91,10.7a6.48,6.48,0,0,1-5.81-.33c-6.5-3.53-13-7.13-19.65-10.29a18.52,18.52,0,0,1-7.52-6.81c-5.24-7.82-10-15.93-15.16-23.83-6.89-10.61-13.81-21.19-20.46-32a2.67,2.67,0,0,0-2.59-1.58q-18.27.06-36.54,0a2.78,2.78,0,0,0-2.63,1.48c-4.6,6.93-9.32,13.79-14,20.66a2.28,2.28,0,0,0-.11,2.87c2.23,3.75,4.47,7.5,6.79,11.2,3.46,5.51,6.6,11.24,9.55,17,1.23,2.42,2.66,3.51,5.28,3.05,1.82-.32,2.86.34,3.74,2.11,2.47,4.91,5.19,9.69,7.87,14.49,1.68,3,2.34,3,4,.13,2.93-5,5.85-10,8.8-15,1.32-2.21,4.83-2.66,5.93-.73q7.44,13.1,15.59,25.75c1.6,2.5,2.43,5.53,5.35,7.18,7.16,4.05,14,8.68,21,13,6.69,4.09,13.29,8.34,20,12.46,1.41.86,1.64,1.52.35,2.92-3.18,3.44-6.15,7.08-9.14,10.69-1.71,2.06-3.41,3.29-6.51,3.26-22-.21-44.09-.13-66.13-.08-1.53,0-2.45-.3-3.21-1.76-2.56-4.89-5.38-9.65-7.92-14.56-1-2-1.64-1.76-2.62-.1-2.16,3.63-4.71,7.08-6.44,10.9-1.93,4.29-4.54,6.48-9.35,5.5-1.36-.27-1.9.48-2.12,1.83-1.14,7.1-2.17,14.22-3.71,21.23-.52,2.37.39,3,2,3.87q13.32,7.11,26.62,14.29c1.16.62,2.12,1.46,3.65,1.49q46.56.74,93.13,1.62a4.44,4.44,0,0,1,2.7.47q13.21,8.79,26.74,17.11c8.57,5.28,16.76,11.2,25.38,16.39,2.7,1.63,3.31,3.28,3.24,6.08-.05,2.24-.45,3.12-3,3-6.68-.19-13.38-.07-20.07-.05-1,0-1.88-.16-2.63,1-1.86,2.89-3.92,5.66-6,8.43-4.89,6.66-8.55,14.15-13.94,20.48a10.45,10.45,0,0,0-2.66,4.6h69.31c1.07,0,2.11.2,2.77-1.17,2.54-5.18,5.5-10.17,7.69-15.49,1.23-3,3-3.71,5.76-3.49,1.19.09,2.4.09,3.6.18,4,.31,8.08.7,12.14.95,4.24.25,8.5.23,12.73.6,4.47.39,9,.42,13.4.93s8.64.11,12.94,1c1.59.31,3.68.82,5.06-1.24,4.32-6.45,8.65-12.89,12.54-19.61a3,3,0,0,1,3.05-1.72c7.12.07,14.24,0,21.35.08,1.93,0,2.47-.49,2.46-2.43,0-10,.19-20.06,0-30.1,0-2.74.84-3.17,3.3-3.15,11.5.13,23,.06,34.49.06,6.13,0,6.29-.06,8.28,5.76,2.91,8.47,7.26,16.38,9.79,25ZM508.23,646.82c3.65-1.1,7.79-.3,11.76-1.33,8.86-2.3,16.26-6.29,18.25-16.19.93-4.6.16-9.19-3.11-12.62-4-4.18-9.23-6.26-14.82-7.61s-11.42-2.42-16.84-4.61c-3.3-1.33-4.59-4.27-3.31-7.2a6.82,6.82,0,0,1,5.41-4.2c8.06-1.19,15.91-.64,23.18,3.46,1.3.74,2,.61,2.52-.74,1.25-2.93,2.07-6,4-8.68.77-1-.14-1.25-1-1.67-10.35-5.28-21.28-6.21-32.47-3.94-5.41,1.1-10.52,3.21-13.93,8a18.69,18.69,0,0,0-3.33,12.3,14,14,0,0,0,3.43,9c3.91,4.39,9.41,5.71,14.66,7.36,5.81,1.83,12,2.33,17.56,5.16a4.63,4.63,0,0,1,2.48,5.95c-1.44,4-5.14,4.45-8.35,4.9-8.77,1.21-17-1-24.57-5.43-1.36-.79-1.81-.49-2.37.84-1.06,2.5-2.21,5-3.51,7.36-.87,1.61-.48,2.57,1,3.45C492,644.69,499.94,645.66,508.23,646.82ZM451.3,581.39c-6.18,0-12.35,0-18.53,0-.6,0-1.72-.54-1.65.84.09,1.94-.72,3.73-.67,5.74a34.25,34.25,0,0,1-.66,7.77c-.57,2.66-.4,5.32-.78,8-.47,3.27-.46,6.65-1.16,9.92-.57,2.64.26,3.63,2.91,3.73,7.3.26,14.65-.74,21.91.85,6.09,1.33,8.83,5.07,6.42,10.82-1.4,3.33-4.81,4.38-8.17,4.73a33,33,0,0,1-20.64-4.63c-1-.58-1.53-.74-2.11.48-1.4,2.92-3.23,5.61-4.43,8.65-.48,1.2-.27,1.58.8,2.32,6.26,4.3,13.5,5.42,20.7,5.89A41.38,41.38,0,0,0,460,644.78c8.47-2.56,13.76-7.55,15.38-16.51A18.41,18.41,0,0,0,461.53,607a61.51,61.51,0,0,0-16.21-1.53c-1.54.07-2.35-.14-2.09-2a48.8,48.8,0,0,0,.51-7.64c-.05-2,.47-2.65,2.56-2.62,7.71.12,15.43,0,23.15.1,2,0,2.46-.59,2.33-2.44a59.64,59.64,0,0,1,0-7.2c.09-1.72-.32-2.38-2.22-2.34C463.48,581.47,457.39,581.39,451.3,581.39Zm122.86,64.68a28.89,28.89,0,0,0,19.58-6.67c5.17-4.17,7.77-9.86,8.1-16.6.45-9-2.1-16.51-9.92-21.85a31.22,31.22,0,0,0-38.55,2.49,22.57,22.57,0,0,0-7.58,17.71c.12,5.53,1.69,10.79,5.65,15a39.48,39.48,0,0,0,3,3.4C559.91,644.11,566.29,646,574.16,646.07Zm235.14,0c1,0,2.06.05,3.08,0s2.16-.23,3.23-.41c9.91-1.7,17.47-6.45,21-16.34,3.65-10.25.36-22.56-8.87-28.7-7.14-4.76-15.09-5.92-23.43-4.55-5.12.84-10.1,2.41-13.93,6.05-7,6.63-9,14.87-7.32,24.25,1.26,7,5.1,12,11,15.64A26.71,26.71,0,0,0,809.3,646Zm-126.95-6a22.86,22.86,0,0,1,0,2.92c-.3,2,.53,2.48,2.42,2.39,3.26-.16,6.52-.1,9.78,0,1.4,0,1.93-.31,1.92-1.84q-.08-22.77,0-45.53c0-1.34-.34-1.78-1.71-1.75-3.69.09-7.38.12-11.06,0-1.68-.06-2.14.42-2.12,2.1.1,7,.24,13.9,0,20.84-.13,3.26.08,6.67-2.39,9.6-4.21,5-8.33,5.93-14,4.38-3.68-1-5.71-4.77-5.77-10.31q-.12-12.22,0-24.44c0-1.6-.3-2.25-2.08-2.17-3.51.14-7,.14-10.54,0-1.76-.07-2.31.34-2.29,2.2.15,9.6.15,19.2.16,28.81a21.71,21.71,0,0,0,2,8.48c3.54,8.46,14.82,11.5,23.2,10.18C674.43,645.13,678,642.54,682.35,640ZM864.3,601.53a22.89,22.89,0,0,1,0-3.16c.29-1.89-.53-2.27-2.27-2.19-3.34.14-6.69.1-10,0-1.4,0-1.88.3-1.88,1.81q.09,22.62,0,45.25c0,1.79.63,2.12,2.21,2.07,3.25-.1,6.52-.17,9.77,0,2.13.12,2.91-.31,2.84-2.71-.19-7.28-.14-14.57,0-21.85.07-4.22.9-8,4.82-10.82,4.81-3.44,15.3-2.65,17.16,4.48a22.3,22.3,0,0,1,.72,5.69c0,7.72,0,15.43,0,23.14,0,1.54.37,2.11,2,2.06,3.68-.11,7.37-.06,11.06,0,1.18,0,1.83-.07,1.82-1.6-.1-9.6.17-19.21-.19-28.8-.19-4.93-1.44-9.56-5.46-13.4C890.71,595.68,883.58,595,876,596A20.15,20.15,0,0,0,864.3,601.53Zm74.36-5.95a54,54,0,0,0-11.09,1.13c-7.94,1.5-13.85,7.39-13.29,16A13.1,13.1,0,0,0,923.16,624c5.74,1.73,11.67,2.39,17.54,3.39,2.76.47,4.6,2.06,4,4.23s-2.41,2.83-4.33,3.18a31.68,31.68,0,0,1-21.26-3.59c-1.17-.64-1.57-.38-2,.68-1.06,2.42-2.11,4.85-3.31,7.2-.79,1.53-.35,2.18,1.12,2.87a43.38,43.38,0,0,0,20.27,4.12c4.31-.12,8.61-.36,12.64-2,4.33-1.81,8.41-4,10.35-8.7,1.76-4.28,1-10.75-1.9-13.2a22.05,22.05,0,0,0-9.31-4.83c-5.1-1.19-10.35-1.57-15.39-3-1.9-.56-3.2-1.43-3-3.68s1.67-3,3.42-3.56a15.22,15.22,0,0,1,3.43-.6A28,28,0,0,1,949.65,609c.82.38,2.27,1.58,3.2-.35a60.23,60.23,0,0,1,3.75-7.06c1.07-1.64.31-2.25-1-2.71C949.92,596.83,944.11,595.39,938.66,595.58ZM714,621.14h0c0,2.82-.06,5.65,0,8.48.19,8.84,3.26,13.14,11.73,15.59A25.74,25.74,0,0,0,743,644.06c1.59-.66,2.19-1.43,1.1-3.17a24.44,24.44,0,0,1-1.74-4.46c-1.21-3.26-1.2-3.25-4.47-2.16-5.25,1.76-9.27-.85-9.14-6.22.15-6,.08-12,0-18,0-1.52.52-1.9,1.94-1.85,3,.09,6,0,9,0,1.25,0,1.87-.2,1.8-1.65q-.18-3.86,0-7.71c.07-1.48-.58-1.67-1.82-1.64-2.83.08-5.67-.13-8.48.08-2.15.16-2.55-.68-2.44-2.57.15-2.48-.07-5,.08-7.45.09-1.66-.52-2-2-2-3.68.1-7.37.08-11,0-1.29,0-1.8.27-1.74,1.67.12,2.65-.13,5.33.08,8,.17,2-.6,2.58-2.43,2.3a9.89,9.89,0,0,0-1.54,0c-4.23,0-4.27,0-4.21,4.32,0,2.12-.9,4.81.38,6.21s3.89.39,5.92.37c1.46,0,1.9.44,1.86,1.89C713.93,613.77,714,617.45,714,621.14ZM614.2,611.4c0,10.64,0,21.27,0,31.91,0,1.56.37,2.07,2,2,3.68-.12,7.38-.1,11.06,0,1.5,0,1.85-.49,1.85-1.91q-.06-32,0-64.06c0-1.37-.41-1.75-1.74-1.72-3.69.08-7.38.12-11.06,0-1.73-.06-2.11.5-2.1,2.15C614.24,590.3,614.2,600.85,614.2,611.4Zm156.14,9.36c0-7.53,0-15.06,0-22.59,0-1.57-.36-2-2-2-3.67.13-7.36.08-11,0-1.26,0-1.77.22-1.76,1.66q.07,22.85,0,45.71c0,1.58.6,1.79,1.94,1.75,3.42-.08,6.85-.13,10.27,0,1.94.08,2.62-.38,2.58-2.48C770.26,635.49,770.34,628.13,770.34,620.76Zm-8.11-31.39a8.9,8.9,0,0,0,1.79,0c3-.59,5.76-1.5,7.21-4.69a7.33,7.33,0,0,0-.39-7.44c-2.89-4.49-10.18-4.36-13.34-2.54a8.35,8.35,0,0,0-3.75,9C754.7,586.78,758.54,589.38,762.23,589.37Z" transform="translate(-208 -150)"/><path class="cls-2" d="M743.06,513.16c-2.53-8.61-6.88-16.52-9.79-25-2-5.82-2.15-5.76-8.28-5.76-11.5,0-23,.07-34.49-.06-2.46,0-3.34.41-3.3,3.15.15,10-.08,20.07,0,30.1,0,1.94-.53,2.46-2.46,2.43-7.11-.12-14.23,0-21.35-.08a3,3,0,0,0-3.05,1.72c-3.89,6.72-8.22,13.16-12.54,19.61-1.38,2.06-3.47,1.55-5.06,1.24-4.3-.85-8.63-.46-12.94-1s-8.93-.54-13.4-.93c-4.23-.37-8.49-.35-12.73-.6-4.06-.25-8.1-.64-12.14-.95-1.2-.09-2.41-.09-3.6-.18-2.77-.22-4.53.49-5.76,3.49-2.19,5.32-5.15,10.31-7.69,15.49-.66,1.37-1.7,1.17-2.77,1.17H502.36a10.45,10.45,0,0,1,2.66-4.6c5.39-6.33,9.05-13.82,13.94-20.48,2-2.77,4.1-5.54,6-8.43.75-1.17,1.66-1,2.63-1,6.69,0,13.39-.14,20.07.05,2.5.08,2.9-.8,3-3,.07-2.8-.54-4.45-3.24-6.08-8.62-5.19-16.81-11.11-25.38-16.39q-13.53-8.32-26.74-17.11a4.44,4.44,0,0,0-2.7-.47q-46.56-.86-93.13-1.62c-1.53,0-2.49-.87-3.65-1.49q-13.31-7.15-26.62-14.29c-1.61-.86-2.52-1.5-2-3.87,1.54-7,2.57-14.13,3.71-21.23.22-1.35.76-2.1,2.12-1.83,4.81,1,7.42-1.21,9.35-5.5,1.73-3.82,4.28-7.27,6.44-10.9,1-1.66,1.6-1.86,2.62.1,2.54,4.91,5.36,9.67,7.92,14.56.76,1.46,1.68,1.76,3.21,1.76,22-.05,44.09-.13,66.13.08,3.1,0,4.8-1.2,6.51-3.26,3-3.61,6-7.25,9.14-10.69,1.29-1.4,1.06-2.06-.35-2.92-6.68-4.12-13.28-8.37-20-12.46-7-4.29-13.82-8.92-21-13-2.92-1.65-3.75-4.68-5.35-7.18Q429.48,373.12,422,360c-1.1-1.93-4.61-1.48-5.93.73-2.95,5-5.87,10-8.8,15-1.67,2.87-2.33,2.88-4-.13-2.68-4.8-5.4-9.58-7.87-14.49-.88-1.77-1.92-2.43-3.74-2.11-2.62.46-4.05-.63-5.28-3.05-2.95-5.8-6.09-11.53-9.55-17-2.32-3.7-4.56-7.45-6.79-11.2a2.28,2.28,0,0,1,.11-2.87c4.7-6.87,9.42-13.73,14-20.66a2.78,2.78,0,0,1,2.63-1.48q18.27,0,36.54,0a2.67,2.67,0,0,1,2.59,1.58c6.65,10.76,13.57,21.34,20.46,32,5.12,7.9,9.92,16,15.16,23.83a18.52,18.52,0,0,0,7.52,6.81c6.68,3.16,13.15,6.76,19.65,10.29a6.48,6.48,0,0,0,5.81.33c9.62-3.61,19.27-7.14,28.91-10.7a3.81,3.81,0,0,1,3.72.38c6.91,4.33,13.94,8.47,20.94,12.67l22.71,13.62a7.59,7.59,0,0,0,4.11,1.13c12.78-.05,25.56,0,38.34-.06a6.59,6.59,0,0,1,4.21,1.46q14.46,10.92,29,21.69c2.37,1.77,4.85,3.4,7.2,5.19a6.54,6.54,0,0,0,4.26,1.33c16.82-.05,33.63,0,50.44-.08A6,6,0,0,1,712.9,426c8.12,7.56,16.33,15,24.52,22.52.94.85,2.06,1.51,2.93,2.42,1.92,2,4.14,2.47,6.9,2.38,17.32-.55,34.64-.88,52-1.37a5.61,5.61,0,0,1,4.54,1.79c6.59,6.6,13.44,12.95,20.2,19.37,4.51,4.29,8.8,8.83,13.52,12.92a4.77,4.77,0,0,0,3.51,1.07c16.9,0,33.8,0,50.7,0a4.68,4.68,0,0,1,3.93,1.82c5.5,6.38,10.23,13.37,15.59,19.85,2.58,3.13,5.17,6.26,7.59,9.51.9,1.21,2,1.34,3.36,1.34,15.78,0,31.56,0,47.35-.06a4.11,4.11,0,0,1,3.68,1.72c3.48,4.53,6.74,9.28,10.67,13.39,5.25,5.49,9.43,11.83,14.51,17.42,1.39,1.53,3.07,2.82,4.08,5H999.8q-42.21,0-84.41-.09c-7.54,0-15-1.06-22.56-1.33-4.41-.15-8.83-.5-13.23-.75-3.6-.2-7.25-.24-10.87-.73-4-.53-8-.5-12-.71-4.48-.23-8.94-.58-13.41-.92s-9.05,0-13.5-.67c-4.05-.56-8.11-.38-12.16-.77s-8.15-.55-12.22-.85c-4.3-.32-8.61-.39-12.91-.71-4.14-.31-8.31-.59-12.47-.78s-8.09-.66-12.14-.84-8.15-.4-12.23-.66c-4.39-.27-8.77-.64-13.16-.86-4.08-.21-8.16-.71-12.23-.61-2.51.05-4.88-.59-7.34-.66a3.11,3.11,0,0,0-3.34,2c-1.39,2.82-3,5.56-4.44,8.34a2.56,2.56,0,0,1-2.56,1.59c-20.67-.06-41.35,0-62-.05a3.07,3.07,0,0,1-.57-.12c2.27-3.46,4.55-6.86,6.75-10.31,3.48-5.46,6.63-11.14,10.48-16.38a3.23,3.23,0,0,1,3.09-1.25c8.41,0,16.82-.11,25.22.07,2.59.06,3.06-.76,3-3.16-.08-10,.1-20.06.07-30.1,0-1.91.55-2.48,2.49-2.45,7.12.11,14.24.07,21.36,0a3.61,3.61,0,0,1,3.08,1.39c3.28,3.86,6.6,7.68,10,11.43,2.28,2.51,4.73,4.87,7.11,7.3.1.18.14.5.43.3C743.25,513.72,743.11,513.37,743.06,513.16Z" transform="translate(-208 -150)"/><path class="cls-3" d="M508.23,646.82c-8.29-1.16-16.26-2.13-23.35-6.39-1.45-.88-1.84-1.84-1-3.45,1.3-2.38,2.45-4.86,3.51-7.36.56-1.33,1-1.63,2.37-.84,7.59,4.46,15.8,6.64,24.57,5.43,3.21-.45,6.91-.87,8.35-4.9a4.63,4.63,0,0,0-2.48-5.95c-5.55-2.83-11.75-3.33-17.56-5.16-5.25-1.65-10.75-3-14.66-7.36a14,14,0,0,1-3.43-9,18.69,18.69,0,0,1,3.33-12.3c3.41-4.8,8.52-6.91,13.93-8,11.19-2.27,22.12-1.34,32.47,3.94.84.42,1.75.64,1,1.67-1.95,2.63-2.77,5.75-4,8.68-.57,1.35-1.22,1.48-2.52.74-7.27-4.1-15.12-4.65-23.18-3.46a6.82,6.82,0,0,0-5.41,4.2c-1.28,2.93,0,5.87,3.31,7.2,5.42,2.19,11.18,3.24,16.84,4.61s10.86,3.43,14.82,7.61c3.27,3.43,4,8,3.11,12.62-2,9.9-9.39,13.89-18.25,16.19C516,646.52,511.88,645.72,508.23,646.82Z" transform="translate(-208 -150)"/><path class="cls-3" d="M451.3,581.39c6.09,0,12.18.08,18.26,0,1.9,0,2.31.62,2.22,2.34a59.64,59.64,0,0,0,0,7.2c.13,1.85-.31,2.48-2.33,2.44-7.72-.13-15.44,0-23.15-.1-2.09,0-2.61.62-2.56,2.62a48.8,48.8,0,0,1-.51,7.64c-.26,1.88.55,2.09,2.09,2A61.51,61.51,0,0,1,461.53,607a18.41,18.41,0,0,1,13.82,21.24c-1.62,9-6.91,14-15.38,16.51a41.38,41.38,0,0,1-14.73,1.71c-7.2-.47-14.44-1.59-20.7-5.89-1.07-.74-1.28-1.12-.8-2.32,1.2-3,3-5.73,4.43-8.65.58-1.22,1.12-1.06,2.11-.48a33,33,0,0,0,20.64,4.63c3.36-.35,6.77-1.4,8.17-4.73,2.41-5.75-.33-9.49-6.42-10.82-7.26-1.59-14.61-.59-21.91-.85-2.65-.1-3.48-1.09-2.91-3.73.7-3.27.69-6.65,1.16-9.92.38-2.65.21-5.31.78-8a34.25,34.25,0,0,0,.66-7.77c-.05-2,.76-3.8.67-5.74-.07-1.38,1.05-.83,1.65-.84C439,581.37,445.12,581.39,451.3,581.39Z" transform="translate(-208 -150)"/><path class="cls-3" d="M574.16,646.07c-7.87-.05-14.25-2-19.69-6.49a39.48,39.48,0,0,1-3-3.4c-4-4.24-5.53-9.5-5.65-15a22.57,22.57,0,0,1,7.58-17.71A31.22,31.22,0,0,1,591.92,601c7.82,5.34,10.37,12.82,9.92,21.85-.33,6.74-2.93,12.43-8.1,16.6A28.89,28.89,0,0,1,574.16,646.07ZM561.1,620.68c-.72,8.1,6.84,13.82,13,13.68,8-.17,13.05-5.32,13-13.64s-5-13.42-12.84-13.58C567.84,607,560.51,612.65,561.1,620.68Z" transform="translate(-208 -150)"/><path class="cls-3" d="M809.3,646A26.71,26.71,0,0,1,794.08,642c-5.93-3.61-9.77-8.65-11-15.64-1.7-9.38.33-17.62,7.32-24.25,3.83-3.64,8.81-5.21,13.93-6.05,8.34-1.37,16.29-.21,23.43,4.55,9.23,6.14,12.52,18.45,8.87,28.7-3.52,9.89-11.08,14.64-21,16.34-1.07.18-2.15.33-3.23.41S810.33,646,809.3,646Zm1-11.72c7.77,0,12.81-5.32,12.81-13.54s-5.06-13.61-12.78-13.63-12.84,5.46-12.85,13.59S802.59,634.32,810.31,634.32Z" transform="translate(-208 -150)"/><path class="cls-3" d="M682.35,640c-4.34,2.52-7.92,5.11-12.47,5.83-8.38,1.32-19.66-1.72-23.2-10.18a21.71,21.71,0,0,1-2-8.48c0-9.61,0-19.21-.16-28.81,0-1.86.53-2.27,2.29-2.2,3.51.14,7,.14,10.54,0,1.78-.08,2.09.57,2.08,2.17q-.1,12.23,0,24.44c.06,5.54,2.09,9.31,5.77,10.31,5.62,1.55,9.74.63,14-4.38,2.47-2.93,2.26-6.34,2.39-9.6.28-6.94.14-13.89,0-20.84,0-1.68.44-2.16,2.12-2.1,3.68.13,7.37.1,11.06,0,1.37,0,1.71.41,1.71,1.75q-.06,22.77,0,45.53c0,1.53-.52,1.88-1.92,1.84-3.26-.08-6.52-.14-9.78,0-1.89.09-2.72-.41-2.42-2.39A22.86,22.86,0,0,0,682.35,640Z" transform="translate(-208 -150)"/><path class="cls-3" d="M864.3,601.53A20.15,20.15,0,0,1,876,596c7.61-1,14.74-.35,20.85,5.47,4,3.84,5.27,8.47,5.46,13.4.36,9.59.09,19.2.19,28.8,0,1.53-.64,1.62-1.82,1.6-3.69,0-7.38-.09-11.06,0-1.62,0-2-.52-2-2.06.07-7.71,0-15.42,0-23.14a22.3,22.3,0,0,0-.72-5.69c-1.86-7.13-12.35-7.92-17.16-4.48-3.92,2.79-4.75,6.6-4.82,10.82-.11,7.28-.16,14.57,0,21.85.07,2.4-.71,2.83-2.84,2.71-3.25-.18-6.52-.11-9.77,0-1.58,0-2.22-.28-2.21-2.07q.11-22.62,0-45.25c0-1.51.48-1.85,1.88-1.81,3.34.09,6.69.13,10,0,1.74-.08,2.56.3,2.27,2.19A22.89,22.89,0,0,0,864.3,601.53Z" transform="translate(-208 -150)"/><path class="cls-3" d="M938.66,595.58c5.45-.19,11.26,1.25,17,3.28,1.29.46,2,1.07,1,2.71a60.23,60.23,0,0,0-3.75,7.06c-.93,1.93-2.38.73-3.2.35a28,28,0,0,0-14.24-2.55,15.22,15.22,0,0,0-3.43.6c-1.75.55-3.26,1.38-3.42,3.56s1.13,3.12,3,3.68c5,1.47,10.29,1.85,15.39,3a22.05,22.05,0,0,1,9.31,4.83c2.87,2.45,3.66,8.92,1.9,13.2-1.94,4.7-6,6.89-10.35,8.7-4,1.68-8.33,1.92-12.64,2A43.38,43.38,0,0,1,914.93,642c-1.47-.69-1.91-1.34-1.12-2.87,1.2-2.35,2.25-4.78,3.31-7.2.46-1.06.86-1.32,2-.68a31.68,31.68,0,0,0,21.26,3.59c1.92-.35,3.8-1.12,4.33-3.18s-1.28-3.76-4-4.23c-5.87-1-11.8-1.66-17.54-3.39a13.1,13.1,0,0,1-8.88-11.25c-.56-8.65,5.35-14.54,13.29-16A54,54,0,0,1,938.66,595.58Z" transform="translate(-208 -150)"/><path class="cls-3" d="M714,621.14c0-3.69-.06-7.37,0-11.06,0-1.45-.4-1.9-1.86-1.89-2,0-4.72.94-5.92-.37s-.35-4.09-.38-6.21c-.06-4.32,0-4.32,4.21-4.32a9.89,9.89,0,0,1,1.54,0c1.83.28,2.6-.25,2.43-2.3-.21-2.63,0-5.31-.08-8-.06-1.4.45-1.7,1.74-1.67,3.68.07,7.37.09,11,0,1.53,0,2.14.3,2,2-.15,2.48.07,5-.08,7.45-.11,1.89.29,2.73,2.44,2.57,2.81-.21,5.65,0,8.48-.08,1.24,0,1.89.16,1.82,1.64q-.18,3.86,0,7.71c.07,1.45-.55,1.68-1.8,1.65-3-.08-6,0-9,0-1.42-.05-2,.33-1.94,1.85.08,6,.15,12,0,18-.13,5.37,3.89,8,9.14,6.22,3.27-1.09,3.26-1.1,4.47,2.16a24.44,24.44,0,0,0,1.74,4.46c1.09,1.74.49,2.51-1.1,3.17a25.74,25.74,0,0,1-17.22,1.15c-8.47-2.45-11.54-6.75-11.73-15.59-.07-2.83,0-5.66,0-8.48Z" transform="translate(-208 -150)"/><path class="cls-3" d="M614.2,611.4c0-10.55,0-21.1,0-31.64,0-1.65.37-2.21,2.1-2.15,3.68.14,7.37.1,11.06,0,1.33,0,1.74.35,1.74,1.72q-.06,32,0,64.06c0,1.42-.35,2-1.85,1.91-3.68-.1-7.38-.12-11.06,0-1.61.06-2-.45-2-2C614.24,632.67,614.2,622,614.2,611.4Z" transform="translate(-208 -150)"/><path class="cls-3" d="M770.34,620.76c0,7.37-.08,14.73.06,22.09,0,2.1-.64,2.56-2.58,2.48-3.42-.15-6.85-.1-10.27,0-1.34,0-1.95-.17-1.94-1.75q.09-22.86,0-45.71c0-1.44.5-1.68,1.76-1.66,3.68.07,7.37.12,11,0,1.61-.06,2,.42,2,2C770.3,605.7,770.34,613.23,770.34,620.76Z" transform="translate(-208 -150)"/><path class="cls-3" d="M762.23,589.37c-3.69,0-7.53-2.59-8.48-5.7a8.35,8.35,0,0,1,3.75-9c3.16-1.82,10.45-1.95,13.34,2.54a7.33,7.33,0,0,1,.39,7.44c-1.45,3.19-4.19,4.1-7.21,4.69A8.9,8.9,0,0,1,762.23,589.37Z" transform="translate(-208 -150)"/><path class="cls-1" d="M743.06,513.16c.05.21.19.56.12.61-.29.2-.33-.12-.43-.3Z" transform="translate(-208 -150)"/><path class="cls-1" d="M561.1,620.68c-.59-8,6.74-13.68,13.21-13.54,7.87.16,12.8,5.34,12.84,13.58s-5,13.47-13,13.64C567.94,634.5,560.38,628.78,561.1,620.68Z" transform="translate(-208 -150)"/><path class="cls-1" d="M810.31,634.32c-7.72,0-12.84-5.43-12.82-13.58s5.2-13.61,12.85-13.59,12.78,5.42,12.78,13.63S818.08,634.32,810.31,634.32Z" transform="translate(-208 -150)"/></svg>